/* XPM */
static xpm_row_t mummy_right_1[] = {
/* columns rows colors chars-per-pixel */
"54 87 9 1 ",
"  c #000000",
". c #787775",
"X c #7C1BA1",
"o c #999897",
"O c #B8B0A2",
"+ c #D1C8B8",
"@ c #D8D0C1",
"# c #F2E9D8",
"$ c #000001",
/* pixels */
"$$$$$$$$$$$$$$$$$$$$$$$$$$$$$$$$$$$$$$$$$$$$$$$$$$$$$$",
"$$$$$$$$$$$$$$$$$$$$$$$$$$$$$$$$$$$$$$$$$$$$$$$$$$$$$$",
"$$$$$$$$$$$$$$$$$$$$$$$$$$$$$$$$$$$$$$$$$$$$$$$$$$$$$$",
"$$$$$$$$$$$$$$$$$$$$$$$$$$$$$$$$$$$$$$$$$$$$$$$$$$$$$$",
"$$$$$$$$$$$$$$$$$$$$$$$$$$$$$$$$$$$$$$$$$$$$$$$$$$$$$$",
"$$$$$$$$$$$$$$$$$$$$$$$$$$$$$$$$$$$$$$$$$$$$$$$$$$$$$$",
"$$$$$$$$$                        $$$$$$$$$$$$$$$$$$$$$",
"$$$$$$$$$                        $$$$$$$$$$$$$$$$$$$$$",
"$$$$$$$$$                        $$$$$$$$$$$$$$$$$$$$$",
"$$$$$$   #########@@@@@@@@@@@@ooo   $$$$$$$$$$$$$$$$$$",
"$$$$$$   #########@@@@@@@@@@@@ooo   $$$$$$$$$$$$$$$$$$",
"$$$$$$   #########@@@@@@@@@@@@ooo   $$$$$$$$$$$$$$$$$$",
"$$$   ###@@@@@@@@@OOO@@@@@@@@@@@@ooo   $$$$$$$$$$$$$$$",
"$$$   ###@@@@@@@@@OOO@@@@@@@@@@@@ooo   $$$$$$$$$$$$$$$",
"$$$   ###@@@@@@@@@OOO@@@@@@@@@@@@ooo   $$$$$$$$$$$$$$$",
"   ###@@@@@@@@@OOO@@@OOOOOOOOOOOO@@@ooo   $$$$$$$$$$$$",
"   ###@@@@@@@@@OOO@@@OOOOOOOOOOOO@@@ooo   $$$$$$$$$$$$",
"   ###@@@@@@@@@OOO@@@OOOOOOOOOOOO@@@ooo   $$$$$$$$$$$$",
"   OOOOOOOOOOOO@@@@@@OOO@@@@@@@@@@@@ooo   $$$$$$$$$$$$",
"   OOOOOOOOOOOO@@@@@@OOO@@@@@@@@@@@@ooo   $$$$$$$$$$$$",
"   OOOOOOOOOOOO@@@@@@OOO@@@@@@@@@@@@ooo   $$$$$$$$$$$$",
"   @@@@@@@@@@@@XXXXXX@@@@@@@@@XXXXXXooo   $$$$$$$$$$$$",
"   @@@@@@@@@@@@XXXXXX@@@@@@@@@XXXXXXooo   $$$$$$$$$$$$",
"   @@@@@@@@@@@@XXXXXX@@@@@@@@@XXXXXXooo   $$$$$$$$$$$$",
"   @@@@@@@@@@@@OOO@@@@@@@@@@@@@@@@@@ooo   $$$$$$$$$$$$",
"   @@@@@@@@@@@@OOO@@@@@@@@@@@@@@@@@@ooo   $$$$$$$$$$$$",
"   @@@@@@@@@@@@OOO@@@@@@@@@@@@@@@@@@ooo   $$$$$$$$$$$$",
"   @@@@@@OOOOOO@@@OOOOOO@@@@@@@@@OOO...   $$$$$$$$$$$$",
"   @@@@@@OOOOOO@@@OOOOOO@@@@@@@@@OOO...   $$$$$$$$$$$$",
"   @@@@@@OOOOOO@@@OOOOOO@@@@@@@@@OOO...   $$$$$$$$$$$$",
"   OOOOOO@@@@@@@@@@@@         OOO@@@ooo   $$$$$$$$$$$$",
"   OOOOOO@@@@@@@@@@@@         OOO@@@ooo   $$$$$$$$$$$$",
"   OOOOOO@@@@@@@@@@@@         OOO@@@ooo   $$$$$$$$$$$$",
"$$$   @@@@@@@@@@@@               ooo   $$$$$$$$$$$$$$$",
"$$$   @@@@@@@@@@@@               ooo   $$$$$$$$$$$$$$$",
"$$$   @@@@@@@@@@@@               ooo   $$$$$$$$$$$$$$$",
"$$$$$$   @@@@@@@@@@@@@@@OOO@@@ooo   $$$$$$$$$$$$$$$$$$",
"$$$$$$   @@@@@@@@@@@@@@@OOO@@@ooo   $$$$$$$$$$$$$$$$$$",
"$$$$$$   @@@@@@@@@@@@@@@OOO@@@ooo   $$$$$$$$$$$$$$$$$$",
"$$$$$$$$$                        $$$$$$$$$$$$$$$$$$$$$",
"$$$$$$$$$                        $$$$$$$$$$$$$$$$$$$$$",
"$$$$$$$$$                        $$$$$$$$$$$$$$$$$$$$$",
"$$$$$$$$$$$$   ooooooooo...   $$$$$$$$$$$$$$$$$$$$$$$$",
"$$$$$$$$$$$$   ooooooooo...   $$$$$$$$$$$$$$$$$$$$$$$$",
"$$$$$$$$$$$$   ooooooooo...   $$$$$$$$$$$$$$$$$$$$$$$$",
"$$$                     @@@ooo                     $$$",
"$$$                     @@@ooo                     $$$",
"$$$                     @@@ooo                     $$$",
"   ###++++++######+++###   OOO######+++###@@@OOO@@@   ",
"   ###++++++######+++###   OOO######+++###@@@OOO@@@   ",
"   ###++++++######+++###   OOO######+++###@@@OOO@@@   ",
"   @@@OOO@@@@@@   @@@OOO   OOO@@@OOOOOO@@@   OOO@@@   ",
"   @@@OOO@@@@@@   @@@OOO   OOO@@@OOOOOO@@@   OOO@@@   ",
"   @@@OOO@@@@@@   @@@OOO   OOO@@@OOOOOO@@@   OOO@@@   ",
"$$$            @@@      @@@@@@            $$$      $$$",
"$$$            @@@      @@@@@@            $$$      $$$",
"$$$            @@@      @@@@@@            $$$      $$$",
"$$$$$$   @@@@@@OOO@@@@@@@@@OOO...   $$$$$$$$$$$$$$$$$$",
"$$$$$$   @@@@@@OOO@@@@@@@@@OOO...   $$$$$$$$$$$$$$$$$$",
"$$$$$$   @@@@@@OOO@@@@@@@@@OOO...   $$$$$$$$$$$$$$$$$$",
"$$$$$$      @@@@@@OOOOOOOOO@@@ooo   $$$$$$$$$$$$$$$$$$",
"$$$$$$      @@@@@@OOOOOOOOO@@@ooo   $$$$$$$$$$$$$$$$$$",
"$$$$$$      @@@@@@OOOOOOOOO@@@ooo   $$$$$$$$$$$$$$$$$$",
"$$$$$$$$$   OOOOOO@@@@@@@@@ooo   $$$$$$$$$$$$$$$$$$$$$",
"$$$$$$$$$   OOOOOO@@@@@@@@@ooo   $$$$$$$$$$$$$$$$$$$$$",
"$$$$$$$$$   OOOOOO@@@@@@@@@ooo   $$$$$$$$$$$$$$$$$$$$$",
"$$$$$$$$$   @@@@@@@@@@@@OOO...   $$$$$$$$$$$$$$$$$$$$$",
"$$$$$$$$$   @@@@@@@@@@@@OOO...   $$$$$$$$$$$$$$$$$$$$$",
"$$$$$$$$$   @@@@@@@@@@@@OOO...   $$$$$$$$$$$$$$$$$$$$$",
"$$$$$$$$$                        $$$$$$$$$$$$$$$$$$$$$",
"$$$$$$$$$                        $$$$$$$$$$$$$$$$$$$$$",
"$$$$$$$$$                        $$$$$$$$$$$$$$$$$$$$$",
"$$$$$$   ooo...   $$$$$$   OOO@@@   $$$$$$$$$$$$$$$$$$",
"$$$$$$   ooo...   $$$$$$   OOO@@@   $$$$$$$$$$$$$$$$$$",
"$$$$$$   ooo...   $$$$$$   OOO@@@   $$$$$$$$$$$$$$$$$$",
"$$$$$$   ...   $$$$$$$$$$$$   @@@   $$$$$$$$$$$$$$$$$$",
"$$$$$$   ...   $$$$$$$$$$$$   @@@   $$$$$$$$$$$$$$$$$$",
"$$$$$$   ...   $$$$$$$$$$$$   @@@   $$$$$$$$$$$$$$$$$$",
"$$$$$$   ooo         $$$$$$   OOO         $$$$$$$$$$$$",
"$$$$$$   ooo         $$$$$$   OOO         $$$$$$$$$$$$",
"$$$$$$   ooo         $$$$$$   OOO         $$$$$$$$$$$$",
"$$$$$$   ooo...ooo   $$$$$$   @@@@@@@@@   $$$$$$$$$$$$",
"$$$$$$   ooo...ooo   $$$$$$   @@@@@@@@@   $$$$$$$$$$$$",
"$$$$$$   ooo...ooo   $$$$$$   @@@@@@@@@   $$$$$$$$$$$$",
"$$$$$$               $$$$$$               $$$$$$$$$$$$",
"$$$$$$               $$$$$$               $$$$$$$$$$$$",
"$$$$$$               $$$$$$               $$$$$$$$$$$$"
};
