/* XPM */
static xpm_row_t enemy1_walk_right_7[] = {
/* columns rows colors chars-per-pixel */
"54 87 8 1 ",
"  c #000000",
". c #9E9E9D",
"X c #B3A088",
"o c #D9B88F",
"O c #F2CDA0",
"+ c #DDD6C4",
"@ c #FFFFFF",
"# c #000001",
/* pixels */
"###############                        ###############",
"###############                        ###############",
"###############                        ###############",
"############   OOOOOOOOOooooooooooooXXX   ############",
"############   OOOOOOOOOooooooooooooXXX   ############",
"############   OOOOOOOOOooooooooooooXXX   ############",
"#########   OOOoooooo   oooooooooooo   XXX   #########",
"#########   OOOoooooo   oooooooooooo   XXX   #########",
"#########   OOOoooooo   oooooooooooo   XXX   #########",
"######   OOOoooooooooooo   oooooo   ooooooXXX   ######",
"######   OOOoooooooooooo   oooooo   ooooooXXX   ######",
"######   OOOoooooooooooo   oooooo   ooooooXXX   ######",
"###      ooooooooo         oooooo         XXX      ###",
"###      ooooooooo         oooooo         XXX      ###",
"###      ooooooooo         oooooo         XXX      ###",
"   OOO   ooooooooo@@@@@@   oooooo@@@@@@   XXX   XXX   ",
"   OOO   ooooooooo@@@@@@   oooooo@@@@@@   XXX   XXX   ",
"   OOO   ooooooooo@@@@@@   oooooo@@@@@@   XXX   XXX   ",
"   ooo   oooooooooooooooooooooooooooooooooXXX   XXX   ",
"   ooo   oooooooooooooooooooooooooooooooooXXX   XXX   ",
"   ooo   oooooooooooooooooooooooooooooooooXXX   XXX   ",
"###      oooooooooooooooooooooooooooooooooXXX      ###",
"###      oooooooooooooooooooooooooooooooooXXX      ###",
"###      oooooooooooooooooooooooooooooooooXXX      ###",
"######   ooooooooooooooo            ooooooXXX   ######",
"######   ooooooooooooooo            ooooooXXX   ######",
"######   ooooooooooooooo            ooooooXXX   ######",
"#########   ooooooooo   oooooooooooo   XXX   #########",
"#########   ooooooooo   oooooooooooo   XXX   #########",
"#########   ooooooooo   oooooooooooo   XXX   #########",
"############   oooooooooooooooooooooXXX   ############",
"############   oooooooooooooooooooooXXX   ############",
"############   oooooooooooooooooooooXXX   ############",
"###############                        ###############",
"###############                        ###############",
"###############                        ###############",
"######      ######   XXXXXXXXXXXX   ######      ######",
"######      ######   XXXXXXXXXXXX   ######      ######",
"######      ######   XXXXXXXXXXXX   ######      ######",
"###   OOOooo      ooooooooooooooo         oooXXX   ###",
"###   OOOooo      ooooooooooooooo         oooXXX   ###",
"###   OOOooo      ooooooooooooooo         oooXXX   ###",
"   OOOoooooooooooooooooooooooo   ...   oooooooooXXX   ",
"   OOOoooooooooooooooooooooooo   ...   oooooooooXXX   ",
"   OOOoooooooooooooooooooooooo   ...   oooooooooXXX   ",
"   ooooooooooooooooooooo      +++...   oooooooooXXX   ",
"   ooooooooooooooooooooo      +++...   oooooooooXXX   ",
"   ooooooooooooooooooooo      +++...   oooooooooXXX   ",
"   ooooooXXX   oooooo   ++++++++++++...   ooooooXXX   ",
"   ooooooXXX   oooooo   ++++++++++++...   ooooooXXX   ",
"   ooooooXXX   oooooo   ++++++++++++...   ooooooXXX   ",
"###   oooXXX   ooo   +++++++++++++++...   oooXXX   ###",
"###   oooXXX   ooo   +++++++++++++++...   oooXXX   ###",
"###   oooXXX   ooo   +++++++++++++++...   oooXXX   ###",
"###   oooXXX      ++++++++++++++++++...   oooXXX   ###",
"###   oooXXX      ++++++++++++++++++...   oooXXX   ###",
"###   oooXXX      ++++++++++++++++++...   oooXXX   ###",
"###   ooo   ###   +++++++++++++++...   ###   XXX   ###",
"###   ooo   ###   +++++++++++++++...   ###   XXX   ###",
"###   ooo   ###   +++++++++++++++...   ###   XXX   ###",
"   oooooo   ###   +++++++++++++++...   ###   oooXXX   ",
"   oooooo   ###   +++++++++++++++...   ###   oooXXX   ",
"   oooooo   ###   +++++++++++++++...   ###   oooXXX   ",
"   oooooo   ###                        ###   XXXXXX   ",
"   oooooo   ###                        ###   XXXXXX   ",
"   oooooo   ###                        ###   XXXXXX   ",
"###      ######   XXXXXX   ###   ooo   ######      ###",
"###      ######   XXXXXX   ###   ooo   ######      ###",
"###      ######   XXXXXX   ###   ooo   ######      ###",
"###############   XXXXXX      oooooo   ###############",
"###############   XXXXXX      oooooo   ###############",
"###############   XXXXXX      oooooo   ###############",
"###############   XXX   ooooooooo   ##################",
"###############   XXX   ooooooooo   ##################",
"###############   XXX   ooooooooo   ##################",
"###############   XXX   ooo      #####################",
"###############   XXX   ooo      #####################",
"###############   XXX   ooo      #####################",
"###############   XXX   ooo   ########################",
"###############   XXX   ooo   ########################",
"###############   XXX   ooo   ########################",
"###############   XXX         ########################",
"###############   XXX         ########################",
"###############   XXX         ########################",
"###############               ########################",
"###############               ########################",
"###############               ########################"
};
