/* XPM */
static const char *enemy2_walk_right_3[] = {
/* columns rows colors chars-per-pixel */
"54 87 9 1 ",
"  c #000000",
". c #9E9E9D",
"X c #B39F88",
"o c #B3A088",
"O c #D9B88F",
"+ c #F2CDA0",
"@ c #DDD6C4",
"# c #FFFFFF",
"$ c #000001",
/* pixels */
"$$$$$$$$$$$$$$$                        $$$$$$$$$$$$$$$",
"$$$$$$$$$$$$$$$                        $$$$$$$$$$$$$$$",
"$$$$$$$$$$$$$$$                        $$$$$$$$$$$$$$$",
"$$$$$$$$$$$$   +++++++++OOOOOOOOOOOOooo   $$$$$$$$$$$$",
"$$$$$$$$$$$$   +++++++++OOOOOOOOOOOOooo   $$$$$$$$$$$$",
"$$$$$$$$$$$$   +++++++++OOOOOOOOOOOOooo   $$$$$$$$$$$$",
"$$$$$$$$$   +++OOOOOO   OOOOOOOOOOOO   ooo   $$$$$$$$$",
"$$$$$$$$$   +++OOOOOO   OOOOOOOOOOOO   ooo   $$$$$$$$$",
"$$$$$$$$$   +++OOOOOO   OOOOOOOOOOOO   ooo   $$$$$$$$$",
"$$$$$$   +++OOOOOOOOOOOO   OOOOOO   OOOOOOooo   $$$$$$",
"$$$$$$   +++OOOOOOOOOOOO   OOOOOO   OOOOOOooo   $$$$$$",
"$$$$$$   +++OOOOOOOOOOOO   OOOOOO   OOOOOOooo   $$$$$$",
"$$$      OOOOOOOOO         OOOOOO         ooo      $$$",
"$$$      OOOOOOOOO         OOOOOO         ooo      $$$",
"$$$      OOOOOOOOO         OOOOOO         ooo      $$$",
"   +++   OOOOOOOOO######   OOOOOO######   ooo   ooo   ",
"   +++   OOOOOOOOO######   OOOOOO######   ooo   ooo   ",
"   +++   OOOOOOOOO######   OOOOOO######   ooo   ooo   ",
"   OOO   OOOOOOOOOOOOOOOOOOOOOOOOOOOOOOOOOooo   ooo   ",
"   OOO   OOOOOOOOOOOOOOOOOOOOOOOOOOOOOOOOOooo   ooo   ",
"   OOO   OOOOOOOOOOOOOOOOOOOOOOOOOOOOOOOOOooo   ooo   ",
"$$$      OOOOOOOOOOOOOOOOOOOOOOOOOOOOOOOOOooo      $$$",
"$$$      OOOOOOOOOOOOOOOOOOOOOOOOOOOOOOOOOooo      $$$",
"$$$      OOOOOOOOOOOOOOOOOOOOOOOOOOOOOOOOOooo      $$$",
"$$$$$$   OOOOOOOOOOOOOOO            OOOOOOooo   $$$$$$",
"$$$$$$   OOOOOOOOOOOOOOO            OOOOOOooo   $$$$$$",
"$$$$$$   OOOOOOOOOOOOOOO            OOOOOOooo   $$$$$$",
"$$$$$$$$$   OOOOOOOOO   OOOOOOOOOOOO   ooo   $$$$$$$$$",
"$$$$$$$$$   OOOOOOOOO   OOOOOOOOOOOO   ooo   $$$$$$$$$",
"$$$$$$$$$   OOOOOOOOO   OOOOOOOOOOOO   ooo   $$$$$$$$$",
"$$$$$$$$$$$$   OOOOOOOOOOOOOOOOOOOOOooo   $$$$$$$$$$$$",
"$$$$$$$$$$$$   OOOOOOOOOOOOOOOOOOOOOooo   $$$$$$$$$$$$",
"$$$$$$$$$$$$   OOOOOOOOOOOOOOOOOOOOOooo   $$$$$$$$$$$$",
"$$$$$$$$$$$$$$$                        $$$$$$$$$$$$$$$",
"$$$$$$$$$$$$$$$                        $$$$$$$$$$$$$$$",
"$$$$$$$$$$$$$$$                        $$$$$$$$$$$$$$$",
"$$$$$$      $$$$$$   XXXXXXXXXXXX   $$$$$$      $$$$$$",
"$$$$$$      $$$$$$   XXXXXXXXXXXX   $$$$$$      $$$$$$",
"$$$$$$      $$$$$$   XXXXXXXXXXXX   $$$$$$      $$$$$$",
"$$$   +++OOO      OOOOOOOOOOOOOOOooo      OOOooo   $$$",
"$$$   +++OOO      OOOOOOOOOOOOOOOooo      OOOooo   $$$",
"$$$   +++OOO      OOOOOOOOOOOOOOOooo      OOOooo   $$$",
"   +++OOOOOOOOOOOOOOOOOOOOOOOOOOOOOOOOOOOOOOOOOOooo   ",
"   +++OOOOOOOOOOOOOOOOOOOOOOOOOOOOOOOOOOOOOOOOOOooo   ",
"   +++OOOOOOOOOOOOOOOOOOOOOOOOOOOOOOOOOOOOOOOOOOooo   ",
"   OOOOOOOOOOOOOOOOOOOOOOOOOOOOOOOOOOOOOOOOOOOOOooo   ",
"   OOOOOOOOOOOOOOOOOOOOOOOOOOOOOOOOOOOOOOOOOOOOOooo   ",
"   OOOOOOOOOOOOOOOOOOOOOOOOOOOOOOOOOOOOOOOOOOOOOooo   ",
"   OOOOOOooo   OOOOOOOOOOOOOOOOOOOOOooo   OOOOOOooo   ",
"   OOOOOOooo   OOOOOOOOOOOOOOOOOOOOOooo   OOOOOOooo   ",
"   OOOOOOooo   OOOOOOOOOOOOOOOOOOOOOooo   OOOOOOooo   ",
"$$$   OOOooo   OOOOOOOOOOOOOOOOOOOOOooo   OOOooo   $$$",
"$$$   OOOooo   OOOOOOOOOOOOOOOOOOOOOooo   OOOooo   $$$",
"$$$   OOOooo   OOOOOOOOOOOOOOOOOOOOOooo   OOOooo   $$$",
"$$$   OOOooo      OOOOOOOOOOOOOOOooo      OOOooo   $$$",
"$$$   OOOooo      OOOOOOOOOOOOOOOooo      OOOooo   $$$",
"$$$   OOOooo      OOOOOOOOOOOOOOOooo      OOOooo   $$$",
"$$$   OOO   $$$   OOOOOOOOOOOOOOOooo   $$$   ooo   $$$",
"$$$   OOO   $$$   OOOOOOOOOOOOOOOooo   $$$   ooo   $$$",
"$$$   OOO   $$$   OOOOOOOOOOOOOOOooo   $$$   ooo   $$$",
"   OOOOOO   $$$                        $$$   OOOooo   ",
"   OOOOOO   $$$                        $$$   OOOooo   ",
"   OOOOOO   $$$                        $$$   OOOooo   ",
"   OOOOOO   $$$   @@@@@@@@@@@@@@@...   $$$   oooooo   ",
"   OOOOOO   $$$   @@@@@@@@@@@@@@@...   $$$   oooooo   ",
"   OOOOOO   $$$   @@@@@@@@@@@@@@@...   $$$   oooooo   ",
"$$$      $$$   @@@@@@@@@@@@@@@@@@@@@...   $$$      $$$",
"$$$      $$$   @@@@@@@@@@@@@@@@@@@@@...   $$$      $$$",
"$$$      $$$   @@@@@@@@@@@@@@@@@@@@@...   $$$      $$$",
"$$$$$$$$$$$$                              $$$$$$$$$$$$",
"$$$$$$$$$$$$                              $$$$$$$$$$$$",
"$$$$$$$$$$$$                              $$$$$$$$$$$$",
"$$$$$$$$$$$$$$$   OOO   ooooooooo   $$$$$$$$$$$$$$$$$$",
"$$$$$$$$$$$$$$$   OOO   ooooooooo   $$$$$$$$$$$$$$$$$$",
"$$$$$$$$$$$$$$$   OOO   ooooooooo   $$$$$$$$$$$$$$$$$$",
"$$$$$$$$$$$$$$$   OOO            $$$$$$$$$$$$$$$$$$$$$",
"$$$$$$$$$$$$$$$   OOO            $$$$$$$$$$$$$$$$$$$$$",
"$$$$$$$$$$$$$$$   OOO            $$$$$$$$$$$$$$$$$$$$$",
"$$$$$$$$$$$$$$$   OOO         $$$$$$$$$$$$$$$$$$$$$$$$",
"$$$$$$$$$$$$$$$   OOO         $$$$$$$$$$$$$$$$$$$$$$$$",
"$$$$$$$$$$$$$$$   OOO         $$$$$$$$$$$$$$$$$$$$$$$$",
"$$$$$$$$$$$$$$$   OOOOOOOOO   $$$$$$$$$$$$$$$$$$$$$$$$",
"$$$$$$$$$$$$$$$   OOOOOOOOO   $$$$$$$$$$$$$$$$$$$$$$$$",
"$$$$$$$$$$$$$$$   OOOOOOOOO   $$$$$$$$$$$$$$$$$$$$$$$$",
"$$$$$$$$$$$$$$$               $$$$$$$$$$$$$$$$$$$$$$$$",
"$$$$$$$$$$$$$$$               $$$$$$$$$$$$$$$$$$$$$$$$",
"$$$$$$$$$$$$$$$               $$$$$$$$$$$$$$$$$$$$$$$$"
};
