/* XPM */
static xpm_row_t pharaoh_idle_down_1[] = {
/* columns rows colors chars-per-pixel */
"72 96 13 1 ",
"  c #000000",
". c #162440",
"X c #A38315",
"o c #E2B007",
"O c #F2BD08",
"+ c #204080",
"@ c #2D59B3",
"# c #B39F88",
"$ c #BFBFBF",
"% c #D9B88F",
"& c #F2CDA0",
"* c #FFFFFF",
"= c #000001",
/* pixels */
"==================                                    ==================",
"==================                                    ==================",
"==================                                    ==================",
"============      @@@OOOOOO@@@ooo@@@+++ooo+++oooooo+++      ============",
"============      @@@OOOOOO@@@ooo@@@+++ooo+++oooooo+++      ============",
"============      @@@OOOOOO@@@ooo@@@+++ooo+++oooooo+++      ============",
"=========   @@@OOO++++++ooo+++ooo++++++ooo+++ooo++++++ooo...   =========",
"=========   @@@OOO++++++ooo+++ooo++++++ooo+++ooo++++++ooo...   =========",
"=========   @@@OOO++++++ooo+++ooo++++++ooo+++ooo++++++ooo...   =========",
"=========   +++oooooo+++ooo+++ooo++++++ooo+++ooo+++oooooo...   =========",
"=========   +++oooooo+++ooo+++ooo++++++ooo+++ooo+++oooooo...   =========",
"=========   +++oooooo+++ooo+++ooo++++++ooo+++ooo+++oooooo...   =========",
"=========   ++++++ooo+++                        +++ooo+++...   =========",
"=========   ++++++ooo+++                        +++ooo+++...   =========",
"=========   ++++++ooo+++                        +++ooo+++...   =========",
"======   OOOooo+++ooo   &&&&&&&&&%%%%%%%%%%%%###   ooo+++oooXXX   ======",
"======   OOOooo+++ooo   &&&&&&&&&%%%%%%%%%%%%###   ooo+++oooXXX   ======",
"======   OOOooo+++ooo   &&&&&&&&&%%%%%%%%%%%%###   ooo+++oooXXX   ======",
"======   ++++++ooo   &&&%%%   %%%%%%%%%%%%   %%%###   ooo+++...   ======",
"======   ++++++ooo   &&&%%%   %%%%%%%%%%%%   %%%###   ooo+++...   ======",
"======   ++++++ooo   &&&%%%   %%%%%%%%%%%%   %%%###   ooo+++...   ======",
"======   oooooo   &&&%%%%%%%%%   %%%%%%   %%%%%%%%%###   oooXXX   ======",
"======   oooooo   &&&%%%%%%%%%   %%%%%%   %%%%%%%%%###   oooXXX   ======",
"======   oooooo   &&&%%%%%%%%%   %%%%%%   %%%%%%%%%###   oooXXX   ======",
"======   +++      %%%%%%         %%%%%%         %%%###      ...   ======",
"======   +++      %%%%%%         %%%%%%         %%%###      ...   ======",
"======   +++      %%%%%%         %%%%%%         %%%###      ...   ======",
"===   OOO   &&&   %%%%%%***   ***%%%%%%***   ***%%%###   ###   XXX   ===",
"===   OOO   &&&   %%%%%%***   ***%%%%%%***   ***%%%###   ###   XXX   ===",
"===   OOO   &&&   %%%%%%***   ***%%%%%%***   ***%%%###   ###   XXX   ===",
"===   +++   %%%   %%%%%%%%%%%%%%%%%%%%%%%%%%%%%%%%%###   ###   ...   ===",
"===   +++   %%%   %%%%%%%%%%%%%%%%%%%%%%%%%%%%%%%%%###   ###   ...   ===",
"===   +++   %%%   %%%%%%%%%%%%%%%%%%%%%%%%%%%%%%%%%###   ###   ...   ===",
"===   oooooo      %%%%%%%%%%%%%%%%%%%%%%%%%%%%%%%%%###      oooXXX   ===",
"===   oooooo      %%%%%%%%%%%%%%%%%%%%%%%%%%%%%%%%%###      oooXXX   ===",
"===   oooooo      %%%%%%%%%%%%%%%%%%%%%%%%%%%%%%%%%###      oooXXX   ===",
"===   +++++++++   %%%%%%%%%%%%            %%%%%%%%%###   ++++++...   ===",
"===   +++++++++   %%%%%%%%%%%%            %%%%%%%%%###   ++++++...   ===",
"===   +++++++++   %%%%%%%%%%%%            %%%%%%%%%###   ++++++...   ===",
"   ooooooooooooooo   %%%%%%   %%%%%%%%%%%%   %%%###   ooooooooooooXXX   ",
"   ooooooooooooooo   %%%%%%   %%%%%%%%%%%%   %%%###   ooooooooooooXXX   ",
"   ooooooooooooooo   %%%%%%   %%%%%%%%%%%%   %%%###   ooooooooooooXXX   ",
"   ++++++++++++++++++   %%%%%%%%%%%%%%%%%%%%%###   +++++++++++++++...   ",
"   ++++++++++++++++++   %%%%%%%%%%%%%%%%%%%%%###   +++++++++++++++...   ",
"   ++++++++++++++++++   %%%%%%%%%%%%%%%%%%%%%###   +++++++++++++++...   ",
"===                  ooo                        XXX                  ===",
"===                  ooo                        XXX                  ===",
"===                  ooo                        XXX                  ===",
"============   &&&%%%      ###############         %%%###   ============",
"============   &&&%%%      ###############         %%%###   ============",
"============   &&&%%%      ###############         %%%###   ============",
"=========   &&&%%%%%%%%%%%%%%%%%%%%%%%%   $$$   %%%%%%%%%###   =========",
"=========   &&&%%%%%%%%%%%%%%%%%%%%%%%%   $$$   %%%%%%%%%###   =========",
"=========   &&&%%%%%%%%%%%%%%%%%%%%%%%%   $$$   %%%%%%%%%###   =========",
"=========   %%%%%%%%%%%%%%%%%%%%%      ***$$$   %%%%%%%%%###   =========",
"=========   %%%%%%%%%%%%%%%%%%%%%      ***$$$   %%%%%%%%%###   =========",
"=========   %%%%%%%%%%%%%%%%%%%%%      ***$$$   %%%%%%%%%###   =========",
"=========   %%%%%%###   %%%%%%   ************$$$   %%%%%%###   =========",
"=========   %%%%%%###   %%%%%%   ************$$$   %%%%%%###   =========",
"=========   %%%%%%###   %%%%%%   ************$$$   %%%%%%###   =========",
"============   %%%###   %%%   ***************$$$   %%%###   ============",
"============   %%%###   %%%   ***************$$$   %%%###   ============",
"============   %%%###   %%%   ***************$$$   %%%###   ============",
"============   oooXXX      ******************$$$   oooXXX   ============",
"============   oooXXX      ******************$$$   oooXXX   ============",
"============   oooXXX      ******************$$$   oooXXX   ============",
"============   +++   ===   ***************$$$   ===   ...   ============",
"============   +++   ===   ***************$$$   ===   ...   ============",
"============   +++   ===   ***************$$$   ===   ...   ============",
"=========   %%%%%%   ===   ***************$$$   ===   %%%###   =========",
"=========   %%%%%%   ===   ***************$$$   ===   %%%###   =========",
"=========   %%%%%%   ===   ***************$$$   ===   %%%###   =========",
"=========   %%%%%%   ===                        ===   ######   =========",
"=========   %%%%%%   ===                        ===   ######   =========",
"=========   %%%%%%   ===                        ===   ######   =========",
"============      ======   ###   ======   ###   ======      ============",
"============      ======   ###   ======   ###   ======      ============",
"============      ======   ###   ======   ###   ======      ============",
"========================   %%%   ======   %%%   ========================",
"========================   %%%   ======   %%%   ========================",
"========================   %%%   ======   %%%   ========================",
"=====================   %%%%%%   ======   %%%%%%   =====================",
"=====================   %%%%%%   ======   %%%%%%   =====================",
"=====================   %%%%%%   ======   %%%%%%   =====================",
"=====================   ooo   ============   ooo   =====================",
"=====================   ooo   ============   ooo   =====================",
"=====================   ooo   ============   ooo   =====================",
"===============         +++   ============   +++         ===============",
"===============         +++   ============   +++         ===============",
"===============         +++   ============   +++         ===============",
"===============   %%%   %%%   ============   %%%   ###   ===============",
"===============   %%%   %%%   ============   %%%   ###   ===============",
"===============   %%%   %%%   ============   %%%   ###   ===============",
"===============               ============               ===============",
"===============               ============               ===============",
"===============               ============               ==============="
};
