/* XPM */
static xpm_row_t secret_1_xpm[] = {
"70 96 6 1",
" 	c #000001",
".	c #000000",
"+	c #A46422",
"@	c #FFFFFF",
"#	c #EB8931",
"$	c #493C2B",
"                                                                      ",
"                                                                      ",
"                                                                      ",
"                                 ........................             ",
"                                 ........................             ",
"                                 ........................             ",
"                                 ...+++++++++++++++++++++...          ",
"                                 ...+++++++++++++++++++++...          ",
"                                 ...+++++++++++++++++++++...          ",
"                              ...@@@@@@@@@@@@@@@@@@@@@@@@...          ",
"                              ...@@@@@@@@@@@@@@@@@@@@@@@@...          ",
"                              ...@@@@@@@@@@@@@@@@@@@@@@@@...          ",
"                           ...+++@@@......@@@@@@......@@@...          ",
"                           ...+++@@@......@@@@@@......@@@...          ",
"                           ...+++@@@......@@@@@@......@@@...          ",
"                           ...+++@@@......@@@@@@......@@@...          ",
"                           ...+++@@@......@@@@@@......@@@...          ",
"                           ...+++@@@......@@@@@@......@@@...          ",
"                           ...++++++++++++###++++++++++++...          ",
"                           ...++++++++++++###++++++++++++...          ",
"                           ...++++++++++++###++++++++++++...          ",
"                           ...@@@@@@@@@+++######@@@@@@@@@...          ",
"                           ...@@@@@@@@@+++######@@@@@@@@@...          ",
"                           ...@@@@@@@@@+++######@@@@@@@@@...          ",
"                           ...$$$+++...+++++++++...+++$$$...          ",
"                           ...$$$+++...+++++++++...+++$$$...          ",
"                           ...$$$+++...+++++++++...+++$$$...          ",
"                           ...$$$$$$......+++......$$$$$$...          ",
"                           ...$$$$$$......+++......$$$$$$...          ",
"                           ...$$$$$$......+++......$$$$$$...          ",
"                           ......+++..................###......       ",
"                           ......+++..................###......       ",
"                           ......+++..................###......       ",
"                        .........++++++++++++++++++...######...       ",
"                        .........++++++++++++++++++...######...       ",
"                        .........++++++++++++++++++...######...       ",
"                        ...###...+++++++++++++++++++++...######...    ",
"                        ...###...+++++++++++++++++++++...######...    ",
"                        ...###...+++++++++++++++++++++...######...    ",
"                        ...###...++++++++++++++++++++++++...###...    ",
"                        ...###...++++++++++++++++++++++++...###...    ",
"                        ...###...++++++++++++++++++++++++...###...    ",
"                        ...###...+++++++++++++++++++++...######...    ",
"                        ...###...+++++++++++++++++++++...######...    ",
"                        ...###...+++++++++++++++++++++...######...    ",
"                        ...###...++++++++++++++++++......######...    ",
"                        ...###...++++++++++++++++++......######...    ",
"                        ...###...++++++++++++++++++......######...    ",
"                        ...+++...$$$++++++++++++...#########...       ",
"                        ...+++...$$$++++++++++++...#########...       ",
"                        ...+++...$$$++++++++++++...#########...       ",
"                        ...+++...$$$++++++++++++...###...###...       ",
"                        ...+++...$$$++++++++++++...###...###...       ",
"                        ...+++...$$$++++++++++++...###...###...       ",
"                        ...+++...$$$++++++++++++.........###...       ",
"                        ...+++...$$$++++++++++++.........###...       ",
"                        ...+++...$$$++++++++++++.........###...       ",
"                        ...$$$...$$$+++++++++++++++...######...       ",
"                        ...$$$...$$$+++++++++++++++...######...       ",
"                        ...$$$...$$$+++++++++++++++...######...       ",
"                        ...$$$$$$+++++++++###++++++.........          ",
"                        ...$$$$$$+++++++++###++++++.........          ",
"                        ...$$$$$$+++++++++###++++++.........          ",
"                        ...###++++++...+++######...###+++...          ",
"                        ...###++++++...+++######...###+++...          ",
"                        ...###++++++...+++######...###+++...          ",
"                     ...###+++$$$......+++######...###+++...          ",
"                     ...###+++$$$......+++######...###+++...          ",
"                     ...###+++$$$......+++######...###+++...          ",
"               ......###+++$$$...   ...++++++###...###+++...          ",
"               ......###+++$$$...   ...++++++###...###+++...          ",
"               ......###+++$$$...   ...++++++###...###+++...          ",
"            ...######+++$$$...      ...++++++.........+++...          ",
"            ...######+++$$$...      ...++++++.........+++...          ",
"            ...######+++$$$...      ...++++++.........+++...          ",
"         ...###++++++$$$...         ...++++++...   ...+++...          ",
"         ...###++++++$$$...         ...++++++...   ...+++...          ",
"         ...###++++++$$$...         ...++++++...   ...+++...          ",
"   .........+++###$$$...            ...+++...   ......+++...          ",
"   .........+++###$$$...            ...+++...   ......+++...          ",
"   .........+++###$$$...            ...+++...   ......+++...          ",
"   ...###++++++...$$$...         ...+++###...   ...++++++...          ",
"   ...###++++++...$$$...         ...+++###...   ...++++++...          ",
"   ...###++++++...$$$...         ...+++###...   ...++++++...          ",
"   ......++++++$$$$$$         ...+++###...   ...++++++++++++...       ",
"   ......++++++$$$$$$         ...+++###...   ...++++++++++++...       ",
"   ......++++++$$$$$$         ...+++###...   ...++++++++++++...       ",
"      ............         ...+++###...      ...###++++++###...       ",
"      ............         ...+++###...      ...###++++++###...       ",
"      ............         ...+++###...      ...###++++++###...       ",
"                           .........            ............          ",
"                           .........            ............          ",
"                           .........            ............          ",
"                                                                      ",
"                                                                      ",
"                                                                      "};
