/* XPM */
static xpm_row_t mummy_left_7[] = {
/* columns rows colors chars-per-pixel */
"54 87 9 1 ",
"  c #000000",
". c #787775",
"X c #7C1BA1",
"o c #999897",
"O c #B8B0A2",
"+ c #D1C8B8",
"@ c #D8D0C1",
"# c #F2E9D8",
"$ c #000001",
/* pixels */
"$$$$$$$$$$$$$$$$$$$$$                        $$$$$$$$$",
"$$$$$$$$$$$$$$$$$$$$$                        $$$$$$$$$",
"$$$$$$$$$$$$$$$$$$$$$                        $$$$$$$$$",
"$$$$$$$$$$$$$$$$$$   #########@@@@@@OOO@@@ooo   $$$$$$",
"$$$$$$$$$$$$$$$$$$   #########@@@@@@OOO@@@ooo   $$$$$$",
"$$$$$$$$$$$$$$$$$$   #########@@@@@@OOO@@@ooo   $$$$$$",
"$$$$$$$$$$$$$$$   ###@@@@@@@@@@@@OOO@@@@@@@@@ooo   $$$",
"$$$$$$$$$$$$$$$   ###@@@@@@@@@@@@OOO@@@@@@@@@ooo   $$$",
"$$$$$$$$$$$$$$$   ###@@@@@@@@@@@@OOO@@@@@@@@@ooo   $$$",
"$$$$$$$$$$$$   ###@@@OOOOOOOOOOOO@@@OOO@@@@@@@@@ooo   ",
"$$$$$$$$$$$$   ###@@@OOOOOOOOOOOO@@@OOO@@@@@@@@@ooo   ",
"$$$$$$$$$$$$   ###@@@OOOOOOOOOOOO@@@OOO@@@@@@@@@ooo   ",
"$$$$$$$$$$$$   @@@@@@@@@@@@@@@OOO@@@@@@OOOOOOOOO...   ",
"$$$$$$$$$$$$   @@@@@@@@@@@@@@@OOO@@@@@@OOOOOOOOO...   ",
"$$$$$$$$$$$$   @@@@@@@@@@@@@@@OOO@@@@@@OOOOOOOOO...   ",
"$$$$$$$$$$$$   @@@XXXXXX@@@@@@@@@XXXXXX@@@@@@@@@ooo   ",
"$$$$$$$$$$$$   @@@XXXXXX@@@@@@@@@XXXXXX@@@@@@@@@ooo   ",
"$$$$$$$$$$$$   @@@XXXXXX@@@@@@@@@XXXXXX@@@@@@@@@ooo   ",
"$$$$$$$$$$$$   @@@@@@@@@@@@@@@@@@@@@OOO@@@@@@@@@ooo   ",
"$$$$$$$$$$$$   @@@@@@@@@@@@@@@@@@@@@OOO@@@@@@@@@ooo   ",
"$$$$$$$$$$$$   @@@@@@@@@@@@@@@@@@@@@OOO@@@@@@@@@ooo   ",
"$$$$$$$$$$$$   OOOOOO@@@@@@@@@OOOOOO@@@OOOOOO@@@ooo   ",
"$$$$$$$$$$$$   OOOOOO@@@@@@@@@OOOOOO@@@OOOOOO@@@ooo   ",
"$$$$$$$$$$$$   OOOOOO@@@@@@@@@OOOOOO@@@OOOOOO@@@ooo   ",
"$$$$$$$$$$$$   @@@@@@OOO         @@@@@@@@@@@@OOO...   ",
"$$$$$$$$$$$$   @@@@@@OOO         @@@@@@@@@@@@OOO...   ",
"$$$$$$$$$$$$   @@@@@@OOO         @@@@@@@@@@@@OOO...   ",
"$$$$$$$$$$$$$$$   @@@               @@@@@@@@@ooo   $$$",
"$$$$$$$$$$$$$$$   @@@               @@@@@@@@@ooo   $$$",
"$$$$$$$$$$$$$$$   @@@               @@@@@@@@@ooo   $$$",
"$$$$$$$$$$$$$$$$$$   @@@@@@OOO@@@@@@@@@@@@ooo   $$$$$$",
"$$$$$$$$$$$$$$$$$$   @@@@@@OOO@@@@@@@@@@@@ooo   $$$$$$",
"$$$$$$$$$$$$$$$$$$   @@@@@@OOO@@@@@@@@@@@@ooo   $$$$$$",
"$$$$$$$$$$$$$$$$$$$$$                        $$$$$$$$$",
"$$$$$$$$$$$$$$$$$$$$$                        $$$$$$$$$",
"$$$$$$$$$$$$$$$$$$$$$                        $$$$$$$$$",
"$$$$$$$$$$$$$$$$$$$$$$$$   ooooooooo...   $$$$$$$$$$$$",
"$$$$$$$$$$$$$$$$$$$$$$$$   ooooooooo...   $$$$$$$$$$$$",
"$$$$$$$$$$$$$$$$$$$$$$$$   ooooooooo...   $$$$$$$$$$$$",
"$$$                     ###@@@                     $$$",
"$$$                     ###@@@                     $$$",
"$$$                     ###@@@                     $$$",
"   ###+++######+++######OOO   ###+++######OOOOOO@@@   ",
"   ###+++######+++######OOO   ###+++######OOOOOO@@@   ",
"   ###+++######+++######OOO   ###+++######OOOOOO@@@   ",
"   @@@OOO   @@@OOOOOO@@@OOO   OOO@@@   @@@@@@OOO@@@   ",
"   @@@OOO   @@@OOOOOO@@@OOO   OOO@@@   @@@@@@OOO@@@   ",
"   @@@OOO   @@@OOOOOO@@@OOO   OOO@@@   @@@@@@OOO@@@   ",
"$$$      $$$            @@@@@@      @@@            $$$",
"$$$      $$$            @@@@@@      @@@            $$$",
"$$$      $$$            @@@@@@      @@@            $$$",
"$$$$$$$$$$$$$$$$$$   OOOOOO@@@@@@@@@OOO@@@ooo   $$$$$$",
"$$$$$$$$$$$$$$$$$$   OOOOOO@@@@@@@@@OOO@@@ooo   $$$$$$",
"$$$$$$$$$$$$$$$$$$   OOOOOO@@@@@@@@@OOO@@@ooo   $$$$$$",
"$$$$$$$$$$$$$$$$$$   @@@@@@OOOOOOOOO@@@ooo      $$$$$$",
"$$$$$$$$$$$$$$$$$$   @@@@@@OOOOOOOOO@@@ooo      $$$$$$",
"$$$$$$$$$$$$$$$$$$   @@@@@@OOOOOOOOO@@@ooo      $$$$$$",
"$$$$$$$$$$$$$$$$$$$$$   @@@@@@@@@@@@OOO...   $$$$$$$$$",
"$$$$$$$$$$$$$$$$$$$$$   @@@@@@@@@@@@OOO...   $$$$$$$$$",
"$$$$$$$$$$$$$$$$$$$$$   @@@@@@@@@@@@OOO...   $$$$$$$$$",
"$$$$$$$$$$$$$$$$$$$$$   OOOOOO@@@@@@@@@ooo   $$$$$$$$$",
"$$$$$$$$$$$$$$$$$$$$$   OOOOOO@@@@@@@@@ooo   $$$$$$$$$",
"$$$$$$$$$$$$$$$$$$$$$   OOOOOO@@@@@@@@@ooo   $$$$$$$$$",
"$$$$$$$$$$$$$$$$$$$$$                        $$$$$$$$$",
"$$$$$$$$$$$$$$$$$$$$$                        $$$$$$$$$",
"$$$$$$$$$$$$$$$$$$$$$                        $$$$$$$$$",
"$$$$$$$$$$$$$$$$$$$$$   @@@   $$$   oooooo   $$$$$$$$$",
"$$$$$$$$$$$$$$$$$$$$$   @@@   $$$   oooooo   $$$$$$$$$",
"$$$$$$$$$$$$$$$$$$$$$   @@@   $$$   oooooo   $$$$$$$$$",
"$$$$$$$$$$$$$$$$$$$$$   OOO@@@         ...   $$$$$$$$$",
"$$$$$$$$$$$$$$$$$$$$$   OOO@@@         ...   $$$$$$$$$",
"$$$$$$$$$$$$$$$$$$$$$   OOO@@@         ...   $$$$$$$$$",
"$$$$$$$$$$$$$$$$$$$$$$$$   @@@OOO@@@   ooo   $$$$$$$$$",
"$$$$$$$$$$$$$$$$$$$$$$$$   @@@OOO@@@   ooo   $$$$$$$$$",
"$$$$$$$$$$$$$$$$$$$$$$$$   @@@OOO@@@   ooo   $$$$$$$$$",
"$$$$$$$$$$$$$$$$$$$$$$$$$$$      @@@   ...   $$$$$$$$$",
"$$$$$$$$$$$$$$$$$$$$$$$$$$$      @@@   ...   $$$$$$$$$",
"$$$$$$$$$$$$$$$$$$$$$$$$$$$      @@@   ...   $$$$$$$$$",
"$$$$$$$$$$$$$$$$$$$$$$$$$$$$$$   @@@   ooo   $$$$$$$$$",
"$$$$$$$$$$$$$$$$$$$$$$$$$$$$$$   @@@   ooo   $$$$$$$$$",
"$$$$$$$$$$$$$$$$$$$$$$$$$$$$$$   @@@   ooo   $$$$$$$$$",
"$$$$$$$$$$$$$$$$$$$$$$$$$$$$$$         ooo   $$$$$$$$$",
"$$$$$$$$$$$$$$$$$$$$$$$$$$$$$$         ooo   $$$$$$$$$",
"$$$$$$$$$$$$$$$$$$$$$$$$$$$$$$         ooo   $$$$$$$$$",
"$$$$$$$$$$$$$$$$$$$$$$$$$$$$$$               $$$$$$$$$",
"$$$$$$$$$$$$$$$$$$$$$$$$$$$$$$               $$$$$$$$$",
"$$$$$$$$$$$$$$$$$$$$$$$$$$$$$$               $$$$$$$$$"
};
