/* XPM */
static xpm_row_t lightning_attack_0[] = {
/* columns rows colors chars-per-pixel */
"100 175 9 1 ",
"  c #000001",
". c #A3EBF9",
"X c #BFECF6",
"o c #CFEDF4",
"O c #CEF1F6",
"+ c #CCF4F8",
"@ c #CFF7FB",
"# c #E4FBFD",
"$ c #FFFFFF",
/* pixels */
"                                                                                                    ",
"                                                                                                    ",
"                                                       @                                            ",
"                                                       #                                            ",
"                                                       $                                            ",
"                                                       $                                            ",
"                                                       $                                            ",
"                                                       $                                            ",
"                                                      @$                                            ",
"                                                      #$                                            ",
"                                                      $#                                            ",
"                                                      $@                                            ",
"                                                     @$O                                            ",
"                                                     $$                                             ",
"                                                    @$#                                             ",
"                                                    $$O                                             ",
"                                                   @$$                                              ",
"                                                   $$@                                              ",
"                                                  @$$                                               ",
"                                                  $$@                                               ",
"                                                 @$$                                                ",
"                                                O$$@                                                ",
"                                                #$$                                                 ",
"                                               @$$@                                                 ",
"                                               $$#                                                  ",
"                                              #$$@                                                  ",
"                                             @$$$                                                   ",
"                                            o$$$@                                                   ",
"                                            #$$$O                                                   ",
"                                           O$$$#                                                    ",
"                                           #$$$@                                                    ",
"                                          @$$$$@                                                    ",
"                                         o$$$$$X                                                    ",
"                                         @$$$$$X                                                    ",
"                                         $$$$$$X o                                                  ",
"                                        O$$$$$$Xoo                                                  ",
"                                        @$$$$$$Oooo                                                 ",
"                                        O$$$$$$@oooo                                                ",
"                                         #$$$$$@ooo o                                               ",
"                                         O$$$$$$. oo                                                ",
"                                          @$$$$$#OoooXO@@@O                                         ",
"                                           @$$$$$$###$$$$$$@                                        ",
"                                            @$$$$$$$$$$$$$$$@                                       ",
"                                             @$$$$$$$$$$$$$$$O                                      ",
"                                              o@####@@@#$$$$$#                                      ",
"                                                    o o X@$$$$@                                     ",
"                                                          O$$$$o                                    ",
"                                                           @$$$@                                    ",
"                                                            @$$$O                                   ",
"                                                            o$$$#                                   ",
"                                                             @$$$@                                  ",
"                                                 #           o$$$#                                  ",
"                                                 @@         o @$$$O                                 ",
"                                                  @@O         @$$$@                                 ",
"                                                    @@O    o  X$$$$                                 ",
"                                                      #O    o o#$$$O                                ",
"                                                       @   o oo#$$$@                                ",
"                                                      @@    ooo#$$$@                                ",
"                                                    O#@   ooo o$$$$@                                ",
"                                                 @@#@o   o oooO$$$$@                                ",
"                                                @@@      ooooo@$$$$o                                ",
"                                                        oooooX$$$$#                                 ",
"                                                       oooooX#$$$$@                                 ",
"                                                      oooooX#$$$$$o                                 ",
"                                                    ooooooX#$$$$$@                                  ",
"                                                   oooooX@$$$$$$#                                   ",
"                                                  ooooX@#$$$$$$#o                                   ",
"                                                 ooX@#$$$$$$$$#o                                    ",
"                                                X@#$$$$$$$$$$#o                                     ",
"                                              X@$$$$$$$$$$$$@o                                      ",
"                                             @$$$$$$$$$$$$$@                                        ",
"                                            O$$$$$$$$$$$$#X                                         ",
"                                            #$$$$$$$$$$#@o                                          ",
"                                           O$$$$$$$$$$@Xooo                                         ",
"                                           @$$$$$$$$#Xooo                                           ",
"                                           @$$$$$$$@Xoooo                                           ",
"                                           @$$$$$$@ooooo                                            ",
"                                           o$$$$$@oXooo                                             ",
"                                            @$$$#Xoooo                                              ",
"                                            o$$$@oooo                                               ",
"                                             @$$@oo o                                               ",
"                                              #$$o                                                  ",
"                                              @$$@                                                  ",
"                                               $$#o                                                 ",
"                                               @$$O                                                 ",
"                                               O$$@                                                 ",
"                                                #$$o        #                                       ",
"                                                @$$O      O$$                                       ",
"                                                O$$@     @$$@                                       ",
"                                                 $$@   o#$$$                                        ",
"                                                 #$@  O$$$$@                                        ",
"                                                 @$#  @$$$$                                         ",
"                                                 @$$  O$$$@                                         ",
"                                                 O$$   $$$O                                         ",
"                                                  $$   #$#                                          ",
"                                                  $#   $$O                                          ",
"                                                  $#   $$                                           ",
"                                                  #@  @$@                                           ",
"                                                  @@  $#                                            ",
"                                                  @   @                                             ",
"                                                                                                    ",
"                                                                                                    ",
"                                                                                                    ",
"                                                                                                    ",
"                                                                                                    ",
"                                                                                                    ",
"                                                                                                    ",
"                                                                                                    ",
"                                                                                                    ",
"                                                                                                    ",
"                                                                                                    ",
"                                                                                                    ",
"                                                                                                    ",
"                                                                                                    ",
"                                                                                                    ",
"                                                                                                    ",
"                                                                                                    ",
"                                                                                                    ",
"                                                                                                    ",
"                                                                                                    ",
"                                                                                                    ",
"                                                                                                    ",
"                                                                                                    ",
"                                                                                                    ",
"                                                                                                    ",
"                                                                                                    ",
"                                                                                                    ",
"                                                                                                    ",
"                                                                                                    ",
"                                                                                                    ",
"                                                                                                    ",
"                                                                                                    ",
"                                                                                                    ",
"                                                                                                    ",
"                                                                                                    ",
"                                                                                                    ",
"                                                                                                    ",
"                                                                                                    ",
"                                                                                                    ",
"                                                                                                    ",
"                                                                                                    ",
"                                                                                                    ",
"                                                                                                    ",
"                                                                                                    ",
"                                                                                                    ",
"                                                                                                    ",
"                                                                                                    ",
"                                                                                                    ",
"                                                                                                    ",
"                                                                                                    ",
"                                                                                                    ",
"                                                                                                    ",
"                                                                                                    ",
"                                                                                                    ",
"                                                                                                    ",
"                                                                                                    ",
"                                                                                                    ",
"                                                                                                    ",
"                                                                                                    ",
"                                                                                                    ",
"                                                                                                    ",
"                                                                                                    ",
"                                                                                                    ",
"                                                                                                    ",
"                                                                                                    ",
"                                                                                                    ",
"                                                                                                    ",
"                                                                                                    ",
"                                                                                                    ",
"                                                                                                    ",
"                                                                                                    ",
"                                                                                                    ",
"                                                                                                    ",
"                                                                                                    ",
"                                                                                                    "
};
