/* XPM */
static xpm_row_t lightning_attack_3[] = {
/* columns rows colors chars-per-pixel */
"100 175 10 1 ",
"  c #000001",
". c #40E7FF",
"X c #A3EBF9",
"o c #BFECF6",
"O c #CFEDF4",
"+ c #CEF1F6",
"@ c #CCF4F8",
"# c #CFF7FB",
"$ c #E4FBFD",
"% c #FFFFFF",
/* pixels */
"                                                                                                    ",
"                                                                                                    ",
"                                                                                                    ",
"                                                                                                    ",
"                                                                                                    ",
"                                                                                                    ",
"                                                                                                    ",
"                                                                                                    ",
"                                                                                                    ",
"                                                                                                    ",
"                                                                                                    ",
"                                                                                                    ",
"                                                                                                    ",
"                                                                                                    ",
"                                                                                                    ",
"                                                                                                    ",
"                                                                                                    ",
"                                                                                                    ",
"                                                                                                    ",
"                                                                                                    ",
"                                                                                                    ",
"                                                                                                    ",
"                                                                                                    ",
"                                                                                                    ",
"                                                                                                    ",
"                                                                                                    ",
"                                                                                                    ",
"                                                                                                    ",
"                                                                                                    ",
"                                                                                                    ",
"                                                                                                    ",
"                                                                                                    ",
"                                                                                                    ",
"                                                                                                    ",
"                                                                                                    ",
"                                                                                                    ",
"                                                                                                    ",
"                                                                                                    ",
"                                                                                                    ",
"                                                                                                    ",
"                                                                                                    ",
"                                                                                                    ",
"                                                                                                    ",
"                                                                                                    ",
"                                                                                                    ",
"                                                                                                    ",
"                                                                                                    ",
"                                                                                                    ",
"                                                                                                    ",
"                                                                                                    ",
"                                                                                                    ",
"                                                                                                    ",
"                                                                                                    ",
"                                                                                                    ",
"                                                                                                    ",
"                                                                                                    ",
"                                                                                                    ",
"                                                                                                    ",
"                                                                                                    ",
"                                                                                                    ",
"                                                                                                    ",
"                                                                                                    ",
"                                                                                                    ",
"                                                                                                    ",
"                                                                                                    ",
"                                                                                                    ",
"                                                                                                    ",
"                                                      #                                             ",
"                                                      %                                             ",
"                                                     #%                                             ",
"                                                     $%                                             ",
"                                                     %%                                             ",
"                                                     %$                                             ",
"                                                    #%#                                             ",
"                                                    $%#                                             ",
"                                                    %%                                              ",
"                                                    %$                                              ",
"                                                   #%#                                              ",
"                                                   $$                                               ",
"                                                   %                                                ",
"                                                  ##                                                ",
"                                                  #                                                 ",
"                                                  #                                                 ",
"                                                 #                                                  ",
"                                                +%                                                  ",
"                                                %%#                                                 ",
"                                               $%%%#                                                ",
"                                              +%%%%%%$####++                                        ",
"                                                +#####$$$$$%%%$+                                    ",
"                                                            +%%%+                                   ",
"                                                             $%%#                                   ",
"                                                            +%%%#                                   ",
"                                                            #%%%#                                   ",
"                                                           #%%%%+                                   ",
"                                                          +%%%%%                                    ",
"                                                         +%%%%%+                                    ",
"                                                        O$%%%%#                                     ",
"                                            ++          $%%%%#                                      ",
"                                            %#         #%%%$+                                       ",
"                                           #%%+       #%%%#                                         ",
"                                          +%%%$O     +%%#O                                          ",
"                                          #%%%%$+   +%%+                                            ",
"                                          %%$%%%%###%$O                                             ",
"                                         #%%#O$%%%%%%O                                              ",
"                                         $%%O +%%%%#O                                               ",
"                                         %%#   O##+       #                                         ",
"                                        +%%O             +%#                                        ",
"                                        #%#              $%%                                        ",
"                                        $%              +%%%                                        ",
"                                        %#              #%%%                                        ",
"                                       +%#             O%%%%                                        ",
"                                       #%#             #%%%%+                                       ",
"                                       $%$             %%%%%+                                       ",
"                                       %%%#           #%%%%%#                                       ",
"                                       $%%%%#        #$+ +#%$                                       ",
"                                          ++#$$#####%$      ##                                      ",
"                                              +#%%%%#        +                                      ",
"                                                                                                    ",
"                                                               +                                    ",
"                                                                #                                   ",
"                                                                 #                                  ",
"                                                                 $                                  ",
"                                          +$%+                   ##                                 ",
"                                         #%%%%O                  +$                                 ",
"                                       +$%%%%%#                   $                                 ",
"                                    O#$%%%%%%%%O                 +$                                 ",
"                                   #%%%%%$#+#$%#     +           +#                                 ",
"                                  $%%%%%$o   O$%             #   #                                  ",
"                                 #%%%%%%+ O   O%#     ++    #    #                                  ",
"                                O%%%%%%#OOOOO  O%+              $                                   ",
"                                o%%%%%$oOoOO    +$            +%                                    ",
"                              OO#%%%%%#oooOOO    +$        +#%%                                     ",
"                              OOX%%%%%XoooOOOO    +%%$#$$$%%%%                                      ",
"                             OOOX%%%%$XoooooOO     +$%%%%%%%#                                       ",
"                         %$#OOooX%%%%#XXooooOOO      +#$%$#                                         ",
"                         #%%$oooX%%%%#XXXXoooOOO                                                    ",
"                         #%%%$ooX%%%%#XXXXooooOOO                                                   ",
"                         O%%%%XXX%%%%%.XXXXXoooOOO                                                  ",
"                          $%%#XX#%%%%%$.XXXXooooOOO                        #                        ",
"                          #%%XoX$%%%%%%%#.XXXXoooOOO                      %#                        ",
"                          o%XoX#%%%%%%%%%$.XXXXoooOOO                    %%                         ",
"                         OOooX$%%%%%%%%%%%%%.XXXooooOO                 +%%%                         ",
"                         OOo#%%%%%%%%%%%%%%%%$#XXooooOOO               %%%#                         ",
"                         OOo$%%%%%%%%%%%%%%%%%%$#XooooOOO             %$%%                          ",
"                        OOoo#%%%%%%%%%%%%%%%%%%%%$#XoooOOO           +  $$                          ",
"                        OOooX#%%%%%%%%%%%%%%%%%%%%%%##XoOOOO            %+                          ",
"                 +     OOOooXX.#%%%%%%%%%%%%%%%%%%%%%%%$#oOO           #%                           ",
"                #%$+   OOoooXXX.....$$$$%%%%%%%%%%%%%%%%%%#OOO         #+                           ",
"                #%%%# OOoooXXXX.........%%%%%%%%%%%%%%%%%%%oOOO                                     ",
"                 %%%%#oOoooXXX.X.......$%%%%%%$$$%%%%%%%%%%#OOOO                                    ",
"                 %%%%%$ooooXXX.........$%%%%.......%%%%%%%%#ooOOOO                                  ",
"                 %%%%%%XooXXXX.........%%%%.........%%%%%%%$ooooOOO       +                         ",
"                 %%%%%$ooXoX.%%%%$.....%%%%.........$%%%%%%$XoooOOOO    #%#                         ",
"                 %%%%$ooooXX%%%%%%%...%%%%%.........#%%%%%%%XooooooOO +$%%+                         ",
"                O%%%%oOoXXX$%%%%%%%%%%%%%%%$.........%%%%%%%#XXoooOOO#%%%%                          ",
"                +%%%$ooooXX%%%%%%%%%%%%%%%%%.........$%%%%%%%XXooooX$%%%%#                          ",
"                #%%%#OooXo#%%%%%%%%%%%%%%%%%%..........$%%%%%%$###$%%%%%%O                          ",
"                #%%%#OoooXX%%%%%%%%%%%%%%%%%%%$......X.X.X.$%%%%%%%%%%%%#                           ",
"                #%%%#OoooXX%%%%%%%$..$%%%%%%%%%%....X..X.XXX#%%%%%%%%%%$O                           ",
"                #%%%$OOoooX$%%%%%%.......$%%%%%%%%$$..X.XX.XX$%%%%%%%%%+                            ",
"                 %%%%oOoooo#%%%%%%........%%%%%%%%%%%.XX.XXXX%%%%%%%%%X O                           ",
"                 $%%%#OOoooX$%%%%%.......$%%%%%%%%%%%X.XXXXX#%%%%%%%%+OO                            ",
"                 #%%%$OOOoooX%%%%%%$....$%%%%%%%%%%%#XXXXXXX%%%%%%%$oOO                             ",
"                  #%%%# OOoooX%%%%%%%%%%%%%%%%%%%%%%XXXXXX#%%%%%%%#oOOO                             ",
"                    $%$O OOooo#%%%%%%%%%%%%%%%%%%%%XXXXXX$%%%%%%#XOOOO         #$%                  ",
"                     #%#  OOOoo#%%%%%%%%%%%%%%%%%$XXXX#$%%%%%%#oOOOOO  OO  +#$%%%#                  ",
"                      +$O   OOoo#%%%%%%%%%%%%$#XXooX#%%%%%%%#oOOOO   O#%$$%%%%%%$                   ",
"                             OOOo$%%%%%%%$#XXXXooX#%%%%%%$#oO O      #%%%%%%%%%#                    ",
"                               OOo$%%%%#XoooooooX%%%%%$#+O            ###$###+                      ",
"                                  o$%#oOOooooOOO#$###oO                                             ",
"                                   OO OOOOO OOO O                                                   ",
"                                                                                                    ",
"                                                                                                    ",
"                                                                                                    ",
"                                                                                                    "
};
