/* XPM */
static xpm_row_t lightning_attack_1[] = {
/* columns rows colors chars-per-pixel */
"100 175 9 1 ",
"  c #000001",
". c #A3EBF9",
"X c #BFECF6",
"o c #CFEDF4",
"O c #CEF1F6",
"+ c #CCF4F8",
"@ c #CFF7FB",
"# c #E4FBFD",
"$ c #FFFFFF",
/* pixels */
"                                                                                                    ",
"                                                                                                    ",
"                                                                                                    ",
"                                                                                                    ",
"                                                                                                    ",
"                                                                                                    ",
"                                                                                                    ",
"                                                                                                    ",
"                                                                                                    ",
"                                                                                                    ",
"                                                                                                    ",
"                                                                                                    ",
"                                                                                                    ",
"                                                                                                    ",
"                                                                                                    ",
"                                                                                                    ",
"                                                                                                    ",
"                                                                                                    ",
"                                                                                                    ",
"                                                                                                    ",
"                                                                                                    ",
"                                                                                                    ",
"                                                                                                    ",
"                                                                                                    ",
"                                                                                                    ",
"                                                                                                    ",
"                                                                                                    ",
"                                                                                                    ",
"                                                                                                    ",
"                                                                                                    ",
"                                                                                                    ",
"                                                                                                    ",
"                                                                                                    ",
"                                                                                                    ",
"                                                           OO                                       ",
"                                                           O$#O                                     ",
"                                                            #$$@                                    ",
"                                                             $$$@                                   ",
"                                                              $$$@                                  ",
"                                                              @$$$@                                 ",
"                                                               $$$$@                                ",
"                                                               $$$$$                                ",
"                                                              @$$$$$                                ",
"                                                           @#$$$$$@                                 ",
"                                                         O$$$$$#@                                   ",
"                                                       O@OO                                         ",
"                                                                                                    ",
"                                                                                                    ",
"                                                                                                    ",
"                                                                                                    ",
"                                                  O                                                 ",
"                                                  @                                                 ",
"                                                  #@                                                ",
"                                                  #$                                                ",
"                                                  #$                                                ",
"                                                  @$@                                               ",
"                                                  @$$                                               ",
"                                                  @$$O                                              ",
"                                                  O$$@                                              ",
"                                                   $$$                                              ",
"                                                   #$$@                                             ",
"                                                   @$$#                                             ",
"                                                   O$$$O                                            ",
"                                                    #$$#                                            ",
"                                                    @$$$@                                           ",
"                                                     $$$$                                           ",
"                                                     @$$$@                                          ",
"                                                      $$$$O                                         ",
"                                                      O$$$$                                         ",
"                                                       @$$$@                                        ",
"                                                        O$$$@                                       ",
"                                                          #$$@                                      ",
"                                                           O$$@                                     ",
"                                                             @$#                                    ",
"                                                               #$@                                  ",
"                                                                @$#                                 ",
"                                                                 O$$@                               ",
"                                                                   #$#                              ",
"                                                                    $$$@                            ",
"                                                                    O$$$@                           ",
"                                                                     @$$$@                          ",
"                                                                     O$$$$                          ",
"                                                                      #$$$#                         ",
"                                                                      @$$$$                         ",
"                                                                      O$$$$O                        ",
"                                                                      O$$$$                         ",
"                                                                      @$$$$                         ",
"                                                                     @$$$$@                         ",
"                                              O@####@#####$$$$$#####@$$$$@                          ",
"                                             o$$$$$@       OOO@@@@@@@@@O                            ",
"                                             @$$$$$#                                                ",
"                                            o$$$$$$$o                                               ",
"                                            O$$$$$$$o                                               ",
"                                            @$$$$$$$X                                               ",
"                                           o#$$$$$$$X                                               ",
"                                           X$$$$$$$$X                                               ",
"                                          oX$$$$$$$$Xo                                              ",
"                                          o@$$$$$$$$Xo                                              ",
"                                         oo@$$$$$$$#Xo                                              ",
"                                         oo@$$$$$$$#Xo                                              ",
"                                         oX#$$$$$$$@ooo                                             ",
"                                        ooX#$$$$$$$@oo                                              ",
"                                        ooX$$$$$$$$.oo                                              ",
"                                        oo.$$$$$$$$Xoo                                              ",
"                                        oo@$$$$$$$@Xoo                                              ",
"                                        oX@$$$$$$$@Xoo                                              ",
"                                        oX@$$$$$$$.Xoo                                              ",
"                                       ooX@$$$$$$#XXoo                                              ",
"                                       ooX@$$$$$$@XXoo                                              ",
"                                       ooX#$$$$$$.XXo  @O                                           ",
"                                       oXX@$$$$$@XXXoo#@                                            ",
"                                      ooXX@$$$$$.XXoX$@                                             ",
"                                      ooXX#$$$$#.XX@$#                                              ",
"                                      ooX.$$$$$...@$$o                                              ",
"                                      oXX@$$$$$##$$#X                                               ",
"                                      oXX#$$$$$$$$$X                                                ",
"                                     ooo.$$$$$$$$$@o                                                ",
"                                     ooX#$$$$$$$$#Xo                                                ",
"                                     oo.$$$$$$$$$.o                                                 ",
"                                     oo@$$$$$$$$@oo                                                 ",
"                                     oX#$$$$$$$#Xoo                                                 ",
"                                    oo.$$$$$$$$.oo                                                  ",
"                                    oo@$$$$$$$@ooo                                                  ",
"                                    oX#$$$$$$#Xoo                                                   ",
"                                     X$$$$$$$.oXo                                                   ",
"                                     @$$$$$$@Xoo                                                    ",
"                                    o@$$$$$$Xooo                                                    ",
"                                    o#$$$$$@Xooo                                                    ",
"                                    X$$$$$$.oXo                                                     ",
"                                    X$$$$$#XXoo                                                     ",
"                                    O$$$$$@oooo                                                     ",
"                                    @$$$$$.oooo                                                     ",
"                                    @$$$$$.oooo                                                     ",
"                                    @$$$$$@oooo                                                     ",
"                                    o$$$$$@oooo                                                     ",
"                                     #$$$$#oooo                                                     ",
"                                     O$$$$$.ooo                                                     ",
"                                      #$$$$#X o                                                     ",
"                                      @@#$$$#@Xo                                                    ",
"                                     o@ o@#$$$$#@#@#@@                                              ",
"                                     @O   oO@#$$$$$$$$@                                             ",
"                                     @   ooooXO@#$$$$$$O                                            ",
"                                    OO    o ooo @$$$$$$@                                            ",
"                                    @      ooo @$$$$$$#@                                            ",
"                                   @       o  @$$$$$#o @                                            ",
"                                  OO         @$$$$$@   @                                            ",
"                                  @         @$$$$@o    OO                                           ",
"                                 @         @$$$$@       @                                           ",
"                                @         O$$$#o         @                                          ",
"                              O@         o$$$@            @@O                                       ",
"                             @O          @$$#                @@@O                                   ",
"                          O@O           O$$$@                      OOO                              ",
"                        @@              @$$$                           @                            ",
"                     @@@                #$$@                            @                           ",
"                  @#@                   #$$@                             @                          ",
"                 @                      @$$O                             @                          ",
"               OO                       @$$                                                         ",
"              @                         #$$                               O                         ",
"             #                       O@#$$$                               O                         ",
"            @                    @$$$$$$$$#                               @                         ",
"                                $$$$$$$$@@                                @                         ",
"           @                   O$$$$$@                                    O                         ",
"                               @$$$#                                                                ",
"          @                    @$$@                                        O                        ",
"          @                    @$@                                         O                        ",
"          @                    $#                                          @                        ",
"                              O$                                           @                        ",
"                              #@                                           @                        ",
"                                                                           O                        ",
"                                                                                                    ",
"                                                                                                    ",
"                                                                                                    ",
"                                                                                                    ",
"                                                                                                    ",
"                                                                                                    "
};
