/* XPM */
static xpm_row_t lightning_attack_4[] = {
/* columns rows colors chars-per-pixel */
"100 175 9 1 ",
"  c #000001",
". c #A3EBF9",
"X c #BFECF6",
"o c #CFEDF4",
"O c #CEF1F6",
"+ c #CCF4F8",
"@ c #CFF7FB",
"# c #E4FBFD",
"$ c #FFFFFF",
/* pixels */
"                                                                                                    ",
"                                                                                                    ",
"                                                                                                    ",
"                                                                                                    ",
"                                                                                                    ",
"                                                                                                    ",
"                                                                                                    ",
"                                                                                                    ",
"                                                                                                    ",
"                                                                                                    ",
"                                                                                                    ",
"                                                                                                    ",
"                                                                                                    ",
"                                                                                                    ",
"                                                                                                    ",
"                                                                                                    ",
"                                                                                                    ",
"                                                                                                    ",
"                                                                                                    ",
"                                                                                                    ",
"                                                                                                    ",
"                                                                                                    ",
"                                                                                                    ",
"                                                                                                    ",
"                                                                                                    ",
"                                                                                                    ",
"                                                                                                    ",
"                                                                                                    ",
"                                                                                                    ",
"                                                                                                    ",
"                                                                                                    ",
"                                                                                                    ",
"                                                                                                    ",
"                                                                                                    ",
"                                                                                                    ",
"                                                                                                    ",
"                                                                                                    ",
"                                                                                                    ",
"                                                                                                    ",
"                                                                                                    ",
"                                                                                                    ",
"                                                                                                    ",
"                                                                                                    ",
"                                                                                                    ",
"                                                                                                    ",
"                                                                                                    ",
"                                                                                                    ",
"                                                                                                    ",
"                                                                                                    ",
"                                                                                                    ",
"                                                                                                    ",
"                                                                                                    ",
"                                                                                                    ",
"                                                                                                    ",
"                                                                                                    ",
"                                                                                                    ",
"                                                                                                    ",
"                                                                                                    ",
"                                                                                                    ",
"                                                                                                    ",
"                                                                                                    ",
"                                                                                                    ",
"                                                                                                    ",
"                                                                                                    ",
"                                                                                                    ",
"                                                                                                    ",
"                                                                                                    ",
"                                                                                                    ",
"                                                                                                    ",
"                                                                                                    ",
"                                                                                                    ",
"                                                                                                    ",
"                                                                                                    ",
"                                                                                                    ",
"                                                                                                    ",
"                                                                                                    ",
"                                                                                                    ",
"                                                                                                    ",
"                                                                                                    ",
"                                                                                                    ",
"                                                    O                                               ",
"                                                    $@                                              ",
"                                                   @$                                               ",
"                                                   $$                                               ",
"                                                  @$@                                               ",
"                                                  $$                                                ",
"                                                 @$@                                                ",
"                                                 #$                                                 ",
"                                                 $#                                                 ",
"                                                @$@                                                 ",
"                                                @$@                                                 ",
"                                                #$@                                                 ",
"                                                $$#                                                 ",
"                                                $$$@                                                ",
"                                                #$$$@                                               ",
"                                                @$$$$$#@#$$$$#@                                     ",
"                                                 @@@@$$$$$$$@ ##                                    ",
"                                                      @$$$$@   $@                                   ",
"                                                       #$$@    O$                                   ",
"                                                                $@                                  ",
"                                                                #@                                  ",
"                                                                #@                                  ",
"                                                                #@                                  ",
"                                                                $@                                  ",
"                                                                $O                                  ",
"                                                                $                                   ",
"                                                               @$                                   ",
"                                              @                $@                                   ",
"                                              $$@             O$                                    ",
"                                               @@             ##                                    ",
"                                                             O$O                                    ",
"                                                             $$                                     ",
"                                                            @$@                                     ",
"                                                           O$$                                      ",
"                                        @O                 $$@                                      ",
"                                        @$                #$#                                       ",
"                                        $$#              @$$                                        ",
"                                        $$$#            @$$@                                        ",
"                                        @$$#           @$$#                                         ",
"                                         OO           @$$$                                          ",
"                                                     #$$$O                                          ",
"                                      @$$$#O       @$$$$@                                           ",
"                                    O$#@@@$$#O  O@$$$$$@       #                                    ",
"                                   O$@     @$$$$$$$$$@O       O$$O                                  ",
"                                   $@        @@@@@@O          @$@@                                  ",
"                                  @$                          $O  @                                 ",
"                                  $$                         @@    @                                ",
"                                  $$O                        @     @O                               ",
"                                  $$#               O       @O     ##                               ",
"                                  #$$O             O$#     @@     @$$O                              ",
"                                   $$@             #$$#OOO##     O$$$@                              ",
"                                    O              $$$$$$$#     O$$$$$                              ",
"                          O@                       @$$$$@O     o$$$$$$                              ",
"                          O#$O                       Oo        #$$$$$@                              ",
"                            $$                                O$$#@@                                ",
"                            $$                                #$$O                                  ",
"                            #@                               O$$$o           @                      ",
"                                                             #$$#           @$                      ",
"                                                            @$$$@          #$$                      ",
"                                                           O$$$#          O#$@                      ",
"                                                          o#$$$o            O                       ",
"             @O                                          @$$$#o                                     ",
"            @$$$#@        oo                           o@#@@o                                       ",
"            $$$$$$#    o@#$$#@O                      o@$$o                                          ",
"           O$$o O@#X  O#$$$$$$$#@                  O@$$$@                                           ",
"           O$#     ooX$$$$$$$$$$$#O              O#$$$$$O                                           ",
"            $$    ooo@$$$$$$$$$$$$$#O          @#$$$$$$@                                            ",
"            #$O  oooX$$$$$$$$$$$$$$$$#@o   oO@$$$$$$$$@   o@@                                       ",
"            @$O oooo.$$$$$#@XXO@$$$$$$$$$#$$$$$$$$$$$O    @$$#                                      ",
"            @$@ oooo@$$$$#XoXoooX@#$$$$$$$$$$$$$$$#@       @$$@                                     ",
"            O$$o oXo@$$$$@oXoooo   oO@@#$$$$$$#@@O          @$$O                                    ",
"            O$$@ ooo@$$$$.XXXooo                             @$#              @#                    ",
"            @$$@ ooX@$$$$XXoooo                              O$$@           O$$@                    ",
"            @$$#oooo.$$$$Xooooo                               $$$          @$$$                     ",
"            @$$$Xooo@$$$#Xoooo                                 @$#        $$$$@                     ",
"            O$$$X oo.$$$#Xooo                                    O       #$$$#                      ",
"             #$$O ooX$$$#Xooo                                            $$$$                       ",
"             O$$@ ooX$$$$Xoo                                             $$$@                       ",
"              @$O ooo#$$$Xo                                             @$$#                        ",
"               #@  oo#$$$O                                              $$$                         ",
"                @    @$$$@                                             #$$@                         ",
"                     @$$$@                                            #$$#                          ",
"                     @$$$#o                                          #$$$                           ",
"                     @$$$$O                                        O$$$$O                           ",
"                     O$$$$#                     @                 @$$$#            @                ",
"                     o$$$$$O                   ##               @$$$$#           #$$$               ",
"                      #$$$$$O                 #$O             @$$$$$@         O@$$$$$O              ",
"                      O$$$$$$                #$@           O#$$$$#@                                 ",
"                       @$$$$$$O            O$$@          @#$$#@O                                    ",
"                        O#$$$$$@         @#$$@         @$$$#O                                       ",
"                           O    O    #$$$$#@         @$$#@                                          ",
"                                                                                                    ",
"                                                                                                    ",
"                                                                                                    ",
"                                                                                                    "
};
