/* XPM */
static xpm_row_t lightning_attack_2[] = {
/* columns rows colors chars-per-pixel */
"100 175 9 1 ",
"  c #000001",
". c #A3EBF9",
"X c #BFECF6",
"o c #CFEDF4",
"O c #CEF1F6",
"+ c #CCF4F8",
"@ c #CFF7FB",
"# c #E4FBFD",
"$ c #FFFFFF",
/* pixels */
"                                                                                                    ",
"                                                                                                    ",
"                                                                                                    ",
"                                                                                                    ",
"                                                                                                    ",
"                                                                                                    ",
"                                                                                                    ",
"                                                                                                    ",
"                                                                                                    ",
"                                                                                                    ",
"                                                                                                    ",
"                                                                                                    ",
"                                                                                                    ",
"                                                                                                    ",
"                                                                                                    ",
"                                                                                                    ",
"                                                                                                    ",
"                                                                                                    ",
"                                                                                                    ",
"                                                                                                    ",
"                                                                                                    ",
"                                                                                                    ",
"                                                                                                    ",
"                                                                                                    ",
"                                                                                                    ",
"                                                                                                    ",
"                                                                                                    ",
"                                                                                                    ",
"                                                                                                    ",
"                                                                                                    ",
"                                                                                                    ",
"                                                                                                    ",
"                                                                                                    ",
"                                                                                                    ",
"                                                                                                    ",
"                                                                                                    ",
"                                                                                                    ",
"                                                                                                    ",
"                                                                                                    ",
"                                                                                                    ",
"                                                                                                    ",
"                                                                                                    ",
"                                                                                                    ",
"                                                                                                    ",
"                                                                                                    ",
"                                                                                                    ",
"                                                                                                    ",
"                                                                                                    ",
"                                                           @                                        ",
"                                                          #$O                                       ",
"                                                         @$$@                                       ",
"                                                         @$$$                                       ",
"                                                         @$$$                                       ",
"                                                          ###                                       ",
"                                                                                                    ",
"                                                     O                                              ",
"                                                    O@                                              ",
"                                                    O@                                              ",
"                                                    O#                                              ",
"                                                    O$                                              ",
"                                                     $O                                             ",
"                                                     $#                                             ",
"                                                     $$O                                            ",
"                                                     #$$                                            ",
"                                                     @$$#                                           ",
"                                                     @$$$@                                          ",
"                                                      $$$$                                          ",
"                                                      $$$$O                                         ",
"                                                   @O @$$$O                                         ",
"                                                  @$$@@$$$                                          ",
"                                                  $$$$$$$@                                          ",
"                                                 @$$$$$#O                                           ",
"                                                 #$$$#O                                             ",
"                                                 $$#                                                ",
"                                                 $@                                                 ",
"                                                O$                                                  ",
"                                                O@                                                  ",
"                                                O@                                                  ",
"                                                O@                                                  ",
"                                                 $                                                  ",
"                                                 $@                                                 ",
"                                                 #$                                                 ",
"                                                 @$#                                                ",
"                                                  $$@                                               ",
"                                                  #$$@                                              ",
"                                                   $$$O                                             ",
"                                                   @$$$                                             ",
"                                                    #$$@                                            ",
"                                                     $$$O                                           ",
"                                                     O$$@                                           ",
"                                     #$$#O            @$$                                           ",
"                                     $$@ @#O           $$O                                          ",
"                                    O$$    ##          $$@                                          ",
"                                     $#     @$@        #$@                                          ",
"                                     $$      @$@       $$@                                          ",
"                                     #$        ##     @$$@                                          ",
"                                     @$O        O##@O@$$$@                                          ",
"                                      $@          @$$$$$$                                           ",
"                                      ##            O@@#O                                           ",
"                                      O$                                                            ",
"                                       $                                                            ",
"                                       @@                                                           ",
"                                       O@                                                           ",
"                                        #                                                           ",
"                                        #                                                           ",
"                                        #O                                                          ",
"                                        @@                                                          ",
"                                        ##                                                          ",
"                                        $$                                                          ",
"                                       @$$O                                                         ",
"                                       #$$@                                                         ",
"                                      O$$$$                                                         ",
"                                      @$$$$@                                                        ",
"                                      $$$$$#                                                        ",
"                                      $$$$$$O                                                       ",
"                                      @$$$$$#                                                       ",
"                                       #$$$$$O                                                      ",
"                                        @$$$$$                                                      ",
"                                          @#$$$O       O@@@@#$$$$$@                                 ",
"                                            O@#$$$$$$$$$$$$$$$$$$$#                                 ",
"                                                O@#$$$$$$$$$$$$$$$@                                 ",
"                                                      OO@O@@OO@$$$O                                 ",
"                                                              O$$$                                  ",
"                                                              o$$@                                  ",
"                                                               $$@                                  ",
"                                                               #$O                                  ",
"                                                               @$O                                  ",
"                                                               @$O                                  ",
"                                                               @$@                                  ",
"                                                               @$@                                  ",
"                                                               @$@                                  ",
"                                                               #$#                                  ",
"                                                               #$$                                  ",
"                                                               $$$O                                 ",
"                                                              o$$$@                                 ",
"                                                              O$$$#                                 ",
"                                                              @$$$$o                                ",
"                                                              @$$$$O                                ",
"                                                              @$$$$@                                ",
"                                                              #$$$$#                                ",
"                                                              #$$$$$o                               ",
"                                                              #$$$$$O                               ",
"                                                              @$$$$$O                               ",
"                                                             oo#$$$$@                               ",
"                                                             ooX#$$$@                               ",
"                                                            oooo@$$$@                               ",
"                                                           ooooX$$$$@                               ",
"                                                           oooX#$$$$@                               ",
"                                                         ooooo@$$$$$X                               ",
"                                                         oooX@$$$$$#o                               ",
"                                              O@@@@    ooooX@$$$$$$@                                ",
"                                             #$$$$$O   oooX#$$$$$$$o                                ",
"                           O$#@O             @@O    ooo o@$$$$$$$$X                                 ",
"                           $$$$$@O                    o.#$$$$$$$$@oo                                ",
"                          @$$$$$$$#@                o@#$$$$$$$$$@oo                                 ",
"                          #$$$$$$$$$$#@O         X@@$$$$$$$$$$#Xoo                                  ",
"                         @$$$$$$######$$$$#@@@@##$$$$$$$$$$$$@o oooooOO@@@@@O                       ",
"                        O$$$$$$@o        O@$$$$$$$$$$$$$$$$@Xo o o@@@@@@@#$$$                       ",
"                        #$$$$$$O            O@$$$$$$$$$$$@X   o           #$$@                      ",
"                       O$$$$$$#o              o@#$$$$$#@X                 $$$@                      ",
"                       @$$$$$$@                  oOOOo                   O$$$                       ",
"                       O$$$$$$@                                          #$$@                       ",
"                        @$$$$$@                                         @$$@                        ",
"                         @$$$$@                                        @$$O                         ",
"                          O#$$#                                       @$@                           ",
"                            @$$O                                    @$$O                            ",
"                             O#$                                  @$$#                              ",
"                               @#                              O@$$$@                               ",
"                                 ##@                          @$$@O                                 ",
"                                  @$                                                                ",
"                                                                                                    ",
"                                                                                                    ",
"                                                                                                    ",
"                                                                                                    ",
"                                                                                                    "
};
