/* XPM */
static xpm_row_t cursor_xpm[] = {
/* columns rows colors chars-per-pixel */
"24 30 121 2 ",
"   c #000001",
".  c #0D0B08",
"X  c #1E180F",
"o  c #201E1B",
"O  c #362B1C",
"+  c #292725",
"@  c #2D2820",
"#  c #2C2A28",
"$  c #302E2C",
"%  c #363027",
"&  c #3D362C",
"*  c #3C3A38",
"=  c #433C31",
"-  c #403E3C",
";  c #4A4235",
":  c #44423F",
">  c #4F483B",
",  c #574C3D",
"<  c #655035",
"1  c #6B5538",
"2  c #70593A",
"3  c #755D3D",
"4  c #78603F",
"5  c #474542",
"6  c #4A4846",
"7  c #4E4C4A",
"8  c #575246",
"9  c #5F5A4D",
"0  c #565452",
"q  c #5B5957",
"w  c #605340",
"e  c #685A46",
"r  c #605E5C",
"t  c #7B6242",
"y  c #7D6544",
"u  c #7F6847",
"i  c #686253",
"p  c #7C6B55",
"a  c #716A5B",
"s  c #656360",
"d  c #686664",
"f  c #6C6A68",
"g  c #706E6C",
"h  c #787263",
"j  c #747370",
"k  c #787674",
"l  c #7C7A78",
"z  c #826A4A",
"x  c #846D4D",
"c  c #867050",
"v  c #887252",
"b  c #8B7555",
"n  c #8D7758",
"m  c #8F7A5A",
"M  c #917C5C",
"N  c #937E5E",
"B  c #817560",
"V  c #8B7C63",
"C  c #827B6A",
"Z  c #817F7C",
"A  c #8A826F",
"S  c #958061",
"D  c #988364",
"F  c #9B8667",
"G  c #97846A",
"H  c #9D8969",
"J  c #918975",
"K  c #948E7D",
"L  c #9C947D",
"P  c #A08C6B",
"I  c #A28F70",
"U  c #A59273",
"Y  c #A99677",
"T  c #AC9B7C",
"R  c #B29E7D",
"E  c #858381",
"W  c #8A8986",
"Q  c #949390",
"!  c #9B9996",
"~  c #A39B85",
"^  c #A19F9C",
"/  c #AAA189",
"(  c #B5A280",
")  c #B0A78F",
"_  c #BDAA88",
"`  c #B1AB9A",
"'  c #B9B094",
"]  c #A7A6A2",
"[  c #AFAEAA",
"{  c #BEB3A1",
"}  c #B9B8B4",
"|  c #C1AE8B",
" . c #C5B290",
".. c #CAB693",
"X. c #CDBA97",
"o. c #C1B79A",
"O. c #D1BE9B",
"+. c #C2B7A5",
"@. c #C7BEA0",
"#. c #C7BDAA",
"$. c #CFC5A6",
"%. c #D8C6A2",
"&. c #D7CDAD",
"*. c #CFC7B3",
"=. c #C3C2BE",
"-. c #D9CFBA",
";. c #DED4B3",
":. c #E4DBB9",
">. c #EAE1BE",
",. c #CCCBC7",
"<. c #DDD9C5",
"1. c #D4D4D1",
"2. c #DEDEDB",
"3. c #E7E1C9",
"4. c #F0E5C1",
"5. c #F7E6C2",
"6. c #F4EBC7",
"7. c #F9E8C4",
"8. c #FBEBC6",
"9. c #E7E4D4",
"0. c #F8F4E3",
/* pixels */
"- 5                                             ",
"! ,.W                                           ",
"W ,.1.=.                                        ",
"* 1.J ,.2.Z                                     ",
"  2.3 $.;.2.}                                   ",
"  1.p n >.>.-.2.l                               ",
"  } L v T 8.8.-.2.[                             ",
"  ] [ x D $.8.8.>.-.1.j                         ",
"  W =.z S I >.8.8.8.-.9.]                       ",
"  - 1.u M Y [ ;.8.8.8.:.-.<.d                   ",
"    2.3 n I #.0.-.>.8.8.8.&.3.^                 ",
"    1.p b P { [ } <.&.8.8.8.:.-.-.i             ",
"    } L v H ) +.^ E -.*.>.8.8.8.&.<.~           ",
"    ] ` x D L *.Q ^ j ) ;.&.8.8.8.:.-.*.9       ",
"    W *.z S G -.Z ] E j a &.&.:.8.8.5.*.<.L     ",
"    : <.y M H *.g E ^ j d 6 ~ ;.&.8.8.8.;.-.#.6 ",
"      <.3 n I *.r k Q l r 0 6 9 $.&.;.8.;.o.~ 9 ",
"      -.B b P $.0 f s ! q 7 5 * + ' ;.' X.R `   ",
"      +.L c F @.a r q g Z 6 : * 6 o.$.%...~ J   ",
"      / ' x D ' C 0 7 6 W 5 * 6 * 4. .X.| / 9   ",
"      W #.z M / K 6 5 : - k 5 * L &.O. .Y )     ",
"      5 <.y m U / : * * 6 s - o &.@.X.| ~ A     ",
"        <.3 b V o.: : - $ # + 9 >. . .( / :     ",
"        -.V v M $.;.&.o.~ C 8 ' $.X._ I ~       ",
"        { ~ x u M n G / o.$.:.6. . .( ~ h       ",
"        / ' 1 y u x v b M D S V T _ Y / @       ",
"        J ` < < < 3 4 t y z c b v ( H K         ",
"        - > w e e w w w < < 2 t y V ~ i         ",
"                . O = ; , w w w w w L           ",
"                              X % = &           "
};
