/* XPM */
static xpm_row_t pr_xpm[] = {
"90 44 2 1",
" 	c #000001",
".	c #000000",
"                                                                                          ",
"                                                                                          ",
"                                                                                          ",
"                                                                                          ",
"                                                                                          ",
"                                                                                          ",
"                                                                                          ",
"                                                                                          ",
"     .......................      .......................                                 ",
"     .......................      .......................                                 ",
"     .......................      .......................                                 ",
"     ..........................   ..........................                              ",
"     ..........................   ..........................                              ",
"     ..........      ..........   ..........      ..........                              ",
"     ..........      ..........   ..........      ..........                              ",
"     ..........      ..........   ..........      ..........                              ",
"     ..........      ..........   ..........      ..........                              ",
"     ..........      ..........   ..........      ..........                              ",
"     ..........      ..........   ..........      ..........         ................     ",
"     ..........................   .......................            ................     ",
"     ..........................   .......................            ................     ",
"     ........................     .......................            ................     ",
"     .......................      .......................                                 ",
"     .......................      .......................                                 ",
"     ..........                   ..........      ..........                              ",
"     ..........                   ..........      ..........                              ",
"     ..........                   ..........      ..........                              ",
"     ..........                   ..........      ..........                              ",
"     ..........                   ..........      ..........                              ",
"     ..........                   ..........      ..........                              ",
"     ..........                   ..........      ..........                              ",
"     ..........                   ..........      ..........                              ",
"     ..........                   ..........      ..........                              ",
"     ..........                   ..........      ..........                              ",
"     ..........                   ..........      ..........                              ",
"                                                                                          ",
"                                                                                          ",
"                                                                                          ",
"                                                                                          ",
"                                                                                          ",
"                                                                                          ",
"                                                                                          ",
"                                                                                          ",
"                                                                                          "};
