/* XPM */
static xpm_row_t two_points_xpm[] = {
"25 40 2 1",
" 	c #000001",
".	c #000000",
"                         ",
"                         ",
"                         ",
"                         ",
"                         ",
"                         ",
"                         ",
"                         ",
"                         ",
"                         ",
"                         ",
"        .........        ",
"        .........        ",
"        .........        ",
"        .........        ",
"        .........        ",
"        .........        ",
"        .........        ",
"        .........        ",
"        .........        ",
"                         ",
"                         ",
"                         ",
"                         ",
"                         ",
"                         ",
"        .........        ",
"        .........        ",
"        .........        ",
"        .........        ",
"        .........        ",
"        .........        ",
"        .........        ",
"        .........        ",
"        .........        ",
"                         ",
"                         ",
"                         ",
"                         ",
"                         "};
