/* XPM */
static xpm_row_t six_xpm[] = {
"40 44 2 1",
" 	c #000001",
".	c #000000",
"                                        ",
"                                        ",
"                                        ",
"                                        ",
"                                        ",
"                                        ",
"                                        ",
"                                        ",
"         ........................       ",
"         ........................       ",
"         ........................       ",
"       ..........................       ",
"       ..........................       ",
"       ..........                       ",
"       ..........                       ",
"       ..........                       ",
"       ..........                       ",
"       ..........                       ",
"       ..........                       ",
"       .......................          ",
"       .......................          ",
"       ..........................       ",
"       ..........................       ",
"       ..........................       ",
"       ..........      ..........       ",
"       ..........      ..........       ",
"       ..........      ..........       ",
"       ..........      ..........       ",
"       ..........      ..........       ",
"       ..........     ...........       ",
"       ..........................       ",
"       ..........................       ",
"         .....................          ",
"         .....................          ",
"         .....................          ",
"                                        ",
"                                        ",
"                                        ",
"                                        ",
"                                        ",
"                                        ",
"                                        ",
"                                        ",
"                                        "};
