/* XPM */
static xpm_row_t heart_0_xpm[] = {
"40 40 27 1",
" 	c #000001",
".	c #000000",
"+	c #FC0000",
"@	c #1B0000",
"#	c #0D0000",
"$	c #FE0000",
"%	c #870000",
"&	c #FF0000",
"*	c #1C0000",
"=	c #0E0000",
"-	c #FFFFFF",
";	c #520000",
">	c #470000",
",	c #FF0C0C",
"'	c #0F0000",
")	c #FD0000",
"!	c #880000",
"~	c #080000",
"{	c #F80000",
"]	c #860000",
"^	c #EB0000",
"/	c #DD0000",
"(	c #810000",
"_	c #760000",
":	c #7E0000",
"<	c #730000",
"[	c #7B0000",
"      .........          .........      ",
"      .........          .........      ",
"      .........          .........      ",
"   ...+++++++++@...  ...#+++$$$%%%...   ",
"   ...&&&&&&&&&*...  ...=&&&&&&%%%...   ",
"   ...&&&&&&&&&*...  ...=&&&&&&%%%...   ",
"   ...&&&&&&&&&*...  ...=&&&&&&%%%...   ",
"...&&&&&----&&&&&&;..>&&&&&&&&&&&&%%%...",
"...&&&&-----&&&&&&;..>&&&&&&&&&&&&%%%...",
"...&&&------&&&&&&;..>&&&&&&&&&&&&%%%...",
"...&&&---&&&&&&&&&&&&&&&&&&&&&&&&&%%%...",
"...&&&---&&&&&&&&&&&&&&&&&&&&&&&&&%%%...",
"...&&&&&&&&&&&&&&&&&&&&&&&&&&&&&&&%%%...",
"...&&&&&&&&&&&&&&&&&&&&&&&&&&&&&&&%%%...",
"...&&&&&&&&&&&&&&&&&&&&&&&&&&&&&&&%%%...",
"...&&&&&&&&&&&&&&&&&&&&&&&&&&&&&&&%%%...",
"...&&&,,,&&&&&&&&&&&&&&&&&&&&&&&&&%%%...",
"...&&&---&&&&&&&&&&&&&&&&&&&&&&&&&%%%...",
"...&&&&--&&&&&&&&&&&&&&&&&&&&&&&&&%%%...",
"...&&&&&-&&&&&&&&&&&&&&&&&&&&&&&&&%%%...",
"   ...&&&&&&&&&&&&&&&&&&&&&&&&&%%%...   ",
"   ...&&&&&&&&&&&&&&&&&&&&&&&&&%%%...   ",
"   ...&&&&&&&&&&&&&&&&&&&&&&&&&%%%...   ",
"      '''&&&&&&&&&&&&&&&&&&)!!!~~~      ",
"      ...&&&&&&&&&&&&&&&&&&)%%%...      ",
"      ...&&&&&&&&&&&&&&&&&&)%%%...      ",
"      ...&&&&&&&&&&&&&&&&&&)%%%...      ",
"         ...)&&&&&&&&&&&{%%]...         ",
"         ...)&&&&&&&&&&&{%%]...         ",
"         ...)&&&&&&&&&&&{%%]...         ",
"            ...^&&&&&/%%(...            ",
"            ...^&&&&&/%%(...            ",
"            ...^&&&&&/%%(...            ",
"               ..._%%:...               ",
"               ..._%%:...               ",
"               ..._%%:...               ",
"               ...<]][...               ",
"                  ....                  ",
"                  ....                  ",
"                  ....                  "};
